# xmcd
#
# Track frame offsets: 
#        150
#        13552
#        24727
#        38635
#        52130
#        69005
#        83150
#        94620
#        105607
#        117557
#        127510
#        139567
#        150915
#        166205
#        178305
#        190450
#        204450
#        217122
#        229020
#        244820
#
# Disc length: 3455 seconds
#
# Revision: 2
# Processed by: cddbd v1.5.2PL0 Copyright (c) Steve Scherf et al.
# Submitted via: ExactAudioCopy v0.95b4
#
DISCID=070d7d14
DTITLE=Conway Twitty - 20 Greatest Hits
DYEAR=1994
DGENRE=Country
TTITLE0=After All the Good is Gone
TTITLE1=As Soon As I Hang Up the Phone
TTITLE2=Baby's Gone
TTITLE3=Danny Boy
TTITLE4=Don't Cry Joni
TTITLE5=Fifteen Years Ago
TTITLE6=Hello Darlin'
TTITLE7=I Can't Believe She Gives It All To Me
TTITLE8=I Can't See Me Without You
TTITLE9=I'll Try
TTITLE10=I'm Not Through Loving You Yet
TTITLE11=It's Only Make Believe
TTITLE12=Lost Her Love On Our First Date
TTITLE13=Linda on my Mind
TTITLE14=She Needs Someone to Hold Her When She Cries
TTITLE15=Games That Daddies Play
TTITLE16=This Time I've Hurt Her More Than She Loves Me
TTITLE17=To See My Angel Cry
TTITLE18=Touch the Hand
TTITLE19=You've Never Been This Far Before
EXTD=
EXTT0=
EXTT1=
EXTT2=
EXTT3=
EXTT4=
EXTT5=
EXTT6=
EXTT7=
EXTT8=
EXTT9=
EXTT10=
EXTT11=
EXTT12=
EXTT13=
EXTT14=
EXTT15=
EXTT16=
EXTT17=
EXTT18=
EXTT19=
PLAYORDER=
